<svg xmlns="http://www.w3.org/2000/svg" viewBox="0 0 512 512">
  <rect width="512" height="512" rx="80" fill="#1a1209"/>
  <rect x="80" y="200" width="140" height="240" rx="8" fill="#2d2010"/>
  <rect x="290" y="140" width="140" height="300" rx="8" fill="#2d2010"/>
  <rect x="100" y="220" width="30" height="40" rx="4" fill="#c8a96e"/>
  <rect x="150" y="220" width="30" height="40" rx="4" fill="#c8a96e"/>
  <rect x="100" y="280" width="30" height="40" rx="4" fill="#c8a96e"/>
  <rect x="150" y="280" width="30" height="40" rx="4" fill="#c8a96e"/>
  <rect x="100" y="340" width="80" height="100" rx="4" fill="#e8c97e"/>
  <rect x="310" y="160" width="30" height="40" rx="4" fill="#c8a96e"/>
  <rect x="360" y="160" width="30" height="40" rx="4" fill="#c8a96e"/>
  <rect x="310" y="220" width="30" height="40" rx="4" fill="#c8a96e"/>
  <rect x="360" y="220" width="30" height="40" rx="4" fill="#c8a96e"/>
  <rect x="310" y="280" width="30" height="40" rx="4" fill="#c8a96e"/>
  <rect x="360" y="280" width="30" height="40" rx="4" fill="#c8a96e"/>
  <rect x="315" y="340" width="80" height="100" rx="4" fill="#e8c97e"/>
  <rect x="60" y="435" width="390" height="12" rx="6" fill="#c8a96e"/>
  <text x="256" y="100" text-anchor="middle" font-family="serif" font-size="56" font-weight="bold" fill="#e8c97e">€</text>
</svg>